<svg version="1.1" 
    viewBox="0.0 0.0 960.0 720.0" 
    fill="none" 
    stroke="none" 
    stroke-linecap="square" 
    stroke-miterlimit="10" 
    xmlns:xlink="http://www.w3.org/1999/xlink" 
    xmlns="http://www.w3.org/2000/svg">
        <clipPath id="p.0">
            <path d="m0 0l960.0 0l0 720.0l-960.0 0l0 -720.0z" 
                clip-rule="nonzero"/>
        </clipPath>
        <g clip-path="url(#p.0)">
            <path fill="#000000" 
                fill-opacity="0.0" 
                d="m0 0l960.0 0l0 720.0l-960.0 0z" 
                fill-rule="evenodd"/>
            <path fill="#cfe2f3" 
                d="m454.49463 268.1679c3.743225 
                -0.9116516 9.928284 -16.830719 13.671936 -15.821533c3.7436523 1.0091858 3.0284119 18.556 8.790009 21.876648c5.7615967 3.3206482 23.012695 -4.9147034 25.779541 -1.9527588c2.7668457 2.9619446 -11.229675 14.09317 -9.178467 19.724396c2.051178 5.631256 21.5831 9.407715 21.485565 14.062988c-0.097595215 4.655304 -21.094055 8.074371 -22.070892 13.868774c-0.97680664 5.794403 18.097992 17.968079 16.209991 20.897644c-1.888031 2.9295654 -22.004395 -6.0870667 -27.538055 -3.320221c-5.5336914 2.7668457 -2.2134705 18.782166 -5.6640625 19.921265c-3.4505615 1.1390991 -9.733154 -13.086609 -15.039368 -13.086609c-5.3062134 0 -13.05423 13.867889 -16.797882 13.086609c-3.7436523 -0.7812805 -1.2694702 -15.463257 -5.6640625 -17.774261c-4.394562 -2.3110352 -18.359558 6.3818665 -20.7034 3.9081116c-2.3438416 -2.473755 8.625977 -15.202515 6.6404114 -18.75064c-1.9855652 -3.5481262 -17.740143 -0.3897705 -18.553802 -2.5380554c-0.81362915 -2.148285 14.42038 -7.747162 13.6719055 -10.351715c-0.7484436 -2.6045532 -18.195099 -3.3547668 -18.16272 -5.2755737c0.03237915 -1.9208374 18.09668 -4.3289795 18.356964 -6.249359c0.26028442 -1.9203796 -17.185913 -3.287384 -16.795288 -5.272949c0.39065552 -1.9855652 18.129944 -2.929596 19.13913 -6.640442c1.0091858 -3.710846 -14.41864 -13.964569 -13.084015 -15.624664c1.3346558 -1.6600952 18.097137 7.4868774 21.091888 5.664032c2.994751 -1.822815 -4.7510986 -15.396301 -3.1233826 -16.601044c1.6277466 -1.2047119 9.764679 10.056427 12.8897705 9.372711c3.125122 -0.6837158 3.4195251 -12.954498 5.860901 -13.475067c2.4413757 -0.52056885 5.0441895 11.263336 8.787384 10.351715z" fill-rule="evenodd"/><path stroke="#000000" stroke-width="1.0" stroke-linejoin="round" stroke-linecap="butt" d="m454.49463 268.1679c3.743225 -0.9116516 9.928284 -16.830719 13.671936 -15.821533c3.7436523 1.0091858 3.0284119 18.556 8.790009 21.876648c5.7615967 3.3206482 23.012695 -4.9147034 25.779541 -1.9527588c2.7668457 2.9619446 -11.229675 14.09317 -9.178467 19.724396c2.051178 5.631256 21.5831 9.407715 21.485565 14.062988c-0.097595215 4.655304 -21.094055 8.074371 -22.070892 13.868774c-0.97680664 5.794403 18.097992 17.968079 16.209991 20.897644c-1.888031 2.9295654 -22.004395 -6.0870667 -27.538055 -3.320221c-5.5336914 2.7668457 -2.2134705 18.782166 -5.6640625 19.921265c-3.4505615 1.1390991 -9.733154 -13.086609 -15.039368 -13.086609c-5.3062134 0 -13.05423 13.867889 -16.797882 13.086609c-3.7436523 -0.7812805 -1.2694702 -15.463257 -5.6640625 -17.774261c-4.394562 -2.3110352 -18.359558 6.3818665 -20.7034 3.9081116c-2.3438416 -2.473755 8.625977 -15.202515 6.6404114 -18.75064c-1.9855652 -3.5481262 -17.740143 -0.3897705 -18.553802 -2.5380554c-0.81362915 -2.148285 14.42038 -7.747162 13.6719055 -10.351715c-0.7484436 -2.6045532 -18.195099 -3.3547668 -18.16272 -5.2755737c0.03237915 -1.9208374 18.09668 -4.3289795 18.356964 -6.249359c0.26028442 -1.9203796 -17.185913 -3.287384 -16.795288 -5.272949c0.39065552 -1.9855652 18.129944 -2.929596 19.13913 -6.640442c1.0091858 -3.710846 -14.41864 -13.964569 -13.084015 -15.624664c1.3346558 -1.6600952 18.097137 7.4868774 21.091888 5.664032c2.994751 -1.822815 -4.7510986 -15.396301 -3.1233826 -16.601044c1.6277466 -1.2047119 9.764679 10.056427 12.8897705 9.372711c3.125122 -0.6837158 3.4195251 -12.954498 5.860901 -13.475067c2.4413757 -0.52056885 5.0441895 11.263336 8.787384 10.351715z" fill-rule="evenodd"/></g></svg>